<svg xmlns="http://www.w3.org/2000/svg" width="21.333" height="16" viewBox="0 0 21.333 16"><defs><style>.a{fill:#fff;}</style></defs><path class="a" d="M18.889,16H2.444A2.447,2.447,0,0,1,0,13.556V2.444A2.447,2.447,0,0,1,2.444,0H18.889a2.447,2.447,0,0,1,2.444,2.444V13.556A2.447,2.447,0,0,1,18.889,16ZM2.444,1.333A1.113,1.113,0,0,0,1.333,2.444V13.556a1.113,1.113,0,0,0,1.111,1.111H18.889A1.113,1.113,0,0,0,20,13.556V2.444a1.113,1.113,0,0,0-1.111-1.111Zm0,0"/><path class="a" d="M108.905,89.807a2.237,2.237,0,1,1,2.237-2.237A2.24,2.24,0,0,1,108.905,89.807Zm0-3.132a.895.895,0,1,0,.895.9A.9.9,0,0,0,108.905,86.674Zm0,0" transform="translate(-102.231 -81.786)"/><path class="a" d="M71.383,216.912a.671.671,0,0,1-.671-.671v-.448a1.12,1.12,0,0,0-1.119-1.119H66.461a1.12,1.12,0,0,0-1.119,1.119v.448a.671.671,0,0,1-1.342,0v-.448a2.463,2.463,0,0,1,2.461-2.461h3.132a2.463,2.463,0,0,1,2.461,2.461v.448A.671.671,0,0,1,71.383,216.912Zm0,0" transform="translate(-61.315 -204.461)"/><path class="a" d="M304.261,97.342h-4.922a.671.671,0,1,1,0-1.342h4.922a.671.671,0,1,1,0,1.342Zm0,0" transform="translate(-286.284 -92.002)"/><path class="a" d="M304.261,182.674h-4.922a.671.671,0,1,1,0-1.342h4.922a.671.671,0,1,1,0,1.342Zm0,0" transform="translate(-286.284 -173.781)"/><path class="a" d="M304.261,268.01h-4.922a.671.671,0,1,1,0-1.342h4.922a.671.671,0,1,1,0,1.342Zm0,0" transform="translate(-286.284 -255.564)"/></svg>