<svg xmlns="http://www.w3.org/2000/svg" width="31.44" height="32.454" viewBox="0 0 31.44 32.454"><defs><style>.a{fill:#fff;}</style></defs><g transform="translate(0)"><path class="a" d="M22.548,13.185a1.521,1.521,0,1,0-1.521-1.521A1.521,1.521,0,0,0,22.548,13.185Zm6.085,0a1.521,1.521,0,1,0-1.521-1.521A1.521,1.521,0,0,0,28.634,13.185Zm-8.99,9.875a29.9,29.9,0,0,0,3.412.267,11.725,11.725,0,0,0,12.17-11.79C35.226,5.165,29.117,0,23.056,0,15.763,0,9.871,5.165,9.871,11.536a11.535,11.535,0,0,0,4.057,9.081v5.751ZM11.9,11.663c0-5.321,4.82-9.635,11.156-9.635C28.1,2.028,33.2,6.342,33.2,11.663S29.217,21.3,23.056,21.3a24.713,24.713,0,0,1-3.638-.279l-3.461,2.307V19.732A10.147,10.147,0,0,1,11.9,11.663Zm25.3-2.4c.019.291.052.579.052.874a13.089,13.089,0,0,1-.153,1.9,8.747,8.747,0,0,1,2.182,5.706,9.38,9.38,0,0,1-5.071,8.069v3.594L30.75,27.1a12.845,12.845,0,0,1-2.624.279,9.2,9.2,0,0,1-5.929-2.1c-.553.045-1.112.073-1.677.073-.4,0-.8-.029-1.2-.052a11.656,11.656,0,0,0,8.8,3.855,15.033,15.033,0,0,0,2.429-.2l5.685,3.5V26.7a11.066,11.066,0,0,0,5.071-9.081A10.872,10.872,0,0,0,37.2,9.268ZM16.463,13.185a1.521,1.521,0,1,0-1.521-1.521A1.521,1.521,0,0,0,16.463,13.185Z" transform="translate(-9.871)"/></g></svg>