<svg xmlns="http://www.w3.org/2000/svg" width="15.261" height="18" viewBox="0 0 15.261 18"><defs><style>.a{fill:#e81702;}</style></defs><g transform="translate(-38.957)"><g transform="translate(38.957)"><path class="a" d="M54.218,8.022A2.938,2.938,0,0,0,49.6,5.614a3.53,3.53,0,0,0-2.427-1.652V2.935a1.763,1.763,0,0,1,1.761-1.761.587.587,0,1,0,0-1.174,2.934,2.934,0,0,0-2.476,1.363A2.855,2.855,0,0,0,44.313.391H43.066a.587.587,0,0,0-.587.587V2.226A2.865,2.865,0,0,0,44.2,4.849a3.546,3.546,0,0,0-.625.765,2.935,2.935,0,1,0-2.2,5.3,2.933,2.933,0,0,0,2.348,3.522,2.935,2.935,0,1,0,5.731,0A2.933,2.933,0,0,0,51.8,10.91,2.939,2.939,0,0,0,54.218,8.022Zm-7.63-2.935A2.348,2.348,0,1,1,44.24,7.435,2.351,2.351,0,0,1,46.587,5.087ZM43.653,2.226v-.66h.66A1.689,1.689,0,0,1,46,3.253v.66h-.66A1.689,1.689,0,0,1,43.653,2.226ZM41.892,9.783a1.761,1.761,0,1,1,0-3.522,1.745,1.745,0,0,1,1.237.508A3.52,3.52,0,0,0,43.4,8.932,1.757,1.757,0,0,1,41.892,9.783ZM44.24,13.3a1.761,1.761,0,0,1-1.626-2.438,2.924,2.924,0,0,0,1.5-.927,3.518,3.518,0,0,0,1.757.944A1.76,1.76,0,0,1,44.24,13.3Zm2.348,3.522a1.761,1.761,0,0,1-1.626-2.438A2.942,2.942,0,0,0,46.587,13.3a2.943,2.943,0,0,0,1.626,1.086,1.761,1.761,0,0,1-1.626,2.438ZM48.935,13.3A1.76,1.76,0,0,1,47.3,10.883,3.518,3.518,0,0,0,49.06,9.94a2.924,2.924,0,0,0,1.5.927A1.761,1.761,0,0,1,48.935,13.3Zm2.348-3.522a1.757,1.757,0,0,1-1.508-.851,3.52,3.52,0,0,0,.271-2.162,1.744,1.744,0,0,1,1.237-.508,1.761,1.761,0,0,1,0,3.522Z" transform="translate(-38.957)"/></g></g></svg>