<svg xmlns="http://www.w3.org/2000/svg" width="13.425" height="18" viewBox="0 0 13.425 18"><defs><style>.a{fill:#e81702;}</style></defs><g transform="translate(-37.747)"><path class="a" d="M44.459,0a6.721,6.721,0,0,0-6.712,6.715c0,5.517,6.044,10.9,6.3,11.13a.621.621,0,0,0,.822,0c.257-.227,6.3-5.613,6.3-11.13A6.721,6.721,0,0,0,44.459,0Zm0,16.527c-1.336-1.295-5.469-5.638-5.469-9.812a5.469,5.469,0,1,1,10.939,0C49.929,10.888,45.8,15.232,44.459,16.527Z" transform="translate(0 0)"/><path class="a" d="M100.352,59.183a3.146,3.146,0,1,0,3.126,3.146A3.14,3.14,0,0,0,100.352,59.183Zm0,5.042a1.9,1.9,0,1,1,1.875-1.9A1.888,1.888,0,0,1,100.352,64.225Z" transform="translate(-55.892 -55.607)"/></g></svg>