<svg xmlns="http://www.w3.org/2000/svg" width="21.01" height="16.004" viewBox="0 0 21.01 16.004"><defs><style>.a{fill:#fff;}</style></defs><g transform="translate(0 -61)"><g transform="translate(17.932 68.386)"><path class="a" d="M439.462,241h-1.847a.616.616,0,0,0,0,1.231h1.847a.616.616,0,0,0,0-1.231Z" transform="translate(-437 -241)"/></g><g transform="translate(17.317 70.848)"><path class="a" d="M424.282,302.413l-1.231-1.231a.616.616,0,0,0-.87.87l1.231,1.231a.616.616,0,0,0,.871-.87Z" transform="translate(-422 -301.001)"/></g><g transform="translate(17.317 64.693)"><path class="a" d="M424.281,151.182a.615.615,0,0,0-.87,0l-1.231,1.231a.616.616,0,0,0,.87.87l1.231-1.231A.615.615,0,0,0,424.281,151.182Z" transform="translate(-421.999 -151.001)"/></g><g transform="translate(0 61)"><path class="a" d="M14.239,61a1.849,1.849,0,0,0-1.826,1.571l-.561.561A5.542,5.542,0,0,1,8,64.693H4.309a1.849,1.849,0,0,0-1.741,1.231H2.462a2.462,2.462,0,0,0,0,4.924h.106a1.855,1.855,0,0,0,1.125,1.125v3.183a1.847,1.847,0,1,0,3.693,0V72.079H8a5.542,5.542,0,0,1,3.85,1.561l.561.561a1.847,1.847,0,0,0,3.672-.276V62.847A1.849,1.849,0,0,0,14.239,61ZM2.462,69.617a1.231,1.231,0,0,1,0-2.462Zm3.693,5.54a.616.616,0,1,1-1.231,0V72.079H6.155Zm1.231-4.309H4.309a.616.616,0,0,1-.616-.616V66.54a.616.616,0,0,1,.616-.616H7.386Zm5.006,1.615a6.728,6.728,0,0,0-3.779-1.587V65.9a6.727,6.727,0,0,0,3.779-1.587Zm2.462,1.463a.616.616,0,0,1-.615.616h0a.616.616,0,0,1-.616-.616V62.847a.616.616,0,0,1,1.231,0Z" transform="translate(0 -61)"/></g></g></svg>