<svg xmlns="http://www.w3.org/2000/svg" width="16" height="16.001" viewBox="0 0 16 16.001"><defs><style>.a{fill:#e81702;}</style></defs><g transform="translate(-0.001)"><path class="a" d="M15.322,6.358l-.983-.983V3.986a2.321,2.321,0,0,0-2.323-2.323H10.627L9.646.681a2.325,2.325,0,0,0-3.288,0l-.983.983H3.987A2.326,2.326,0,0,0,1.664,3.987V5.376l-.983.982a2.325,2.325,0,0,0,0,3.286l.983.981v1.391a2.321,2.321,0,0,0,2.323,2.323h1.39l.981.981a2.323,2.323,0,0,0,3.286,0l.982-.983h1.39a2.327,2.327,0,0,0,2.323-2.323V10.626l.983-.982a2.327,2.327,0,0,0,0-3.286ZM5.67,10.089H4.813L4.042,8.7a13.356,13.356,0,0,1-.627-1.276L3.4,7.427c.021.476.033.985.033,1.574v1.087h-.75V6.477h.954L4.385,7.8a10.567,10.567,0,0,1,.59,1.237h.016a13.373,13.373,0,0,1-.07-1.505V6.477H5.67v3.612Zm3.009,0h-2.3V6.478H8.6v.67H7.194V7.9H8.524v.665H7.194V9.42H8.679v.67Zm4,0H11.79l-.306-1.554c-.07-.364-.129-.7-.171-1.114H11.3c-.063.407-.122.75-.208,1.114l-.343,1.554H9.858L9,6.478h.872l.273,1.49c.079.428.156.894.214,1.259h.011c.059-.391.145-.825.236-1.269l.306-1.478h.868L12.071,8c.08.422.14.808.193,1.21h.011c.054-.4.135-.825.209-1.253l.294-1.478h.83Z" transform="translate(0)"/></g></svg>