<svg xmlns="http://www.w3.org/2000/svg" width="31" height="36" viewBox="0 0 31 36"><defs><style>.a{fill:#fedb41;}.b{fill:#e81702;}.c{fill:#ffae00;}</style></defs><g transform="translate(-76.996 -94.644)"><g transform="translate(76.996 94.644)"><path class="a" d="M101.588,11.4a4.618,4.618,0,0,0-1.426-3.363c-.461-.437-.877-.892-.847-1.169a4.674,4.674,0,0,0,.028-.5A4.439,4.439,0,0,0,95.01,1.83a4.159,4.159,0,0,0-.863.09,1.854,1.854,0,0,1-1.525-.648,4.177,4.177,0,0,0-6,0A1.852,1.852,0,0,1,85.1,1.92a4.149,4.149,0,0,0-.863-.09A4.44,4.44,0,0,0,79.9,6.369a4.752,4.752,0,0,0,.053.71c.059.389-.313.915-.786,1.34a4.673,4.673,0,0,0-.087,6.8c.462.437.877.892.847,1.169a4.677,4.677,0,0,0-.028.5,4.439,4.439,0,0,0,4.332,4.539,4.164,4.164,0,0,0,.863-.09,1.854,1.854,0,0,1,1.525.648,4.186,4.186,0,0,0,6.145-.145,1.694,1.694,0,0,1,1.643-.548,4.147,4.147,0,0,0,1.051.135,4.44,4.44,0,0,0,4.332-4.539,4.663,4.663,0,0,0-.073-.821,2.09,2.09,0,0,1,.663-1.534A4.623,4.623,0,0,0,101.588,11.4Zm-11.819,6.14a5.858,5.858,0,0,1-5.676-6.025,5.686,5.686,0,1,1,11.352,0A5.859,5.859,0,0,1,89.769,17.543Z" transform="translate(-74.619)"/><path class="b" d="M35.572,305.7l3.347.324a4.424,4.424,0,0,1,2.743,1.561l2.45,3.315a.934.934,0,0,0,1.75-.189c1.054-2.331,3.039-6.47,4.108-8.913,1.021,2.455,3.127,6.576,4.184,8.913a.934.934,0,0,0,1.75.189l2.45-3.315A4.42,4.42,0,0,1,61.1,306.02l3.347-.324a1.048,1.048,0,0,0,.867-1.685L61.2,296.619c-.467-.839-1.211-.809-1.928-.177a5.234,5.234,0,0,1-2.826,1.8c-1.255.141-2.042-.6-3.4.805a3.976,3.976,0,0,1-2.467,1.111c-.024,0-.168.014-.188.018-.2.017-.365,0-.543.009a3.773,3.773,0,0,1-3.009-.957c-1.544-1.649-2.118-.875-3.373-1.017a3.63,3.63,0,0,1-2.72-1.772,1.088,1.088,0,0,0-1.928.177l-4.111,7.393A1.048,1.048,0,0,0,35.572,305.7Z" transform="translate(-34.507 -275.423)"/><ellipse class="c" cx="7.644" cy="7.871" rx="7.644" ry="7.871" transform="translate(7.445 3.539)"/></g></g></svg>