<svg xmlns="http://www.w3.org/2000/svg" width="9" height="18" viewBox="0 0 9 18"><defs><style>.a{fill:#e81702;}</style></defs><g transform="translate(-133 -8)"><g transform="translate(133 8)"><path class="a" d="M135.5,10.146V3a3,3,0,0,0-6,0v7.146a4.5,4.5,0,1,0,6,0Zm-3,6.354a3,3,0,0,1-2-5.236l.5-.447V3a1.5,1.5,0,0,1,3,0v7.816l.5.447a3,3,0,0,1-2,5.236Z" transform="translate(-128)"/></g><g transform="translate(136.751 13.121)"><rect class="a" width="1.498" height="7.658"/></g><g transform="translate(136.005 20.017)"><circle class="a" cx="1.5" cy="1.5" r="1.5"/></g></g></svg>