<svg xmlns="http://www.w3.org/2000/svg" width="16" height="16" viewBox="0 0 16 16"><defs><style>.a{fill:#fff;}</style></defs><g transform="translate(0 -5.566)"><g transform="translate(0 5.566)"><path class="a" d="M14.435,9.832h-.827L9.586,5.722a.514.514,0,0,0-.738,0l-1.2,1.223-1.2-1.223a.514.514,0,0,0-.738,0L1.7,9.832H.522A.528.528,0,0,0,0,10.366V21.032a.528.528,0,0,0,.522.533H14.435A1.585,1.585,0,0,0,16,19.966V11.432A1.585,1.585,0,0,0,14.435,9.832ZM9.217,6.853l2.914,2.979H10.477L8.39,7.7Zm-3.13,0,1.2,1.223L9,9.832H3.173ZM12.87,19.966a.528.528,0,0,1-.522.533H1.043V10.9h11.3a.528.528,0,0,1,.522.533v1.6H11.3a2.667,2.667,0,0,0,0,5.333H12.87Zm2.087,0a.528.528,0,0,1-.522.533h-.611a1.625,1.625,0,0,0,.09-.533v-1.6h1.043v1.6Zm0-2.667H11.3a1.6,1.6,0,0,1,0-3.2h3.652Zm0-4.267H13.913v-1.6a1.624,1.624,0,0,0-.09-.533h.611a.528.528,0,0,1,.522.533Z" transform="translate(0 -5.566)"/></g><g transform="translate(10.784 15.182)"><circle class="a" cx="0.521" cy="0.521" r="0.521"/></g></g></svg>