<svg xmlns="http://www.w3.org/2000/svg" width="6.989" height="17.86" viewBox="0 0 6.989 17.86"><defs><style>.a{fill:#e81702;}</style></defs><g transform="translate(-22.255)"><g transform="translate(22.255)"><path class="a" d="M27.5,6.1V.582A.582.582,0,0,0,26.914,0h-2.33A.582.582,0,0,0,24,.582V6.1a3.5,3.5,0,0,0-1.747,3.027v8.154a.582.582,0,0,0,.582.582h5.824a.582.582,0,0,0,.582-.582V9.124A3.5,3.5,0,0,0,27.5,6.1Zm-2.33-4.932h1.165V2.912H25.167Zm2.912,13.2h-2.33V10.871h2.33Zm0-4.659H25.167a.582.582,0,0,0-.582.582v4.659a.582.582,0,0,0,.582.582h2.912V16.7H23.42V9.124a2.331,2.331,0,0,1,1.4-2.136.582.582,0,0,0,.349-.534V4.077h1.165V6.455a.582.582,0,0,0,.349.534,2.331,2.331,0,0,1,1.4,2.136Z" transform="translate(-22.255)"/></g></g></svg>