<svg xmlns="http://www.w3.org/2000/svg" width="17.206" height="20.926" viewBox="0 0 17.206 20.926"><defs><style>.a{fill:#e81702;}</style></defs><g transform="translate(-153.403 -85.115) rotate(19)"><g transform="translate(178.297 28.627)"><path class="a" d="M190.264,44.215a.636.636,0,0,0-.805-.4l-1.771.588-1.113-3.344a4.639,4.639,0,0,0,2.366-5.716l-2.909-6.713L178.3,31.2l.517,2.1c1.176,4.851.088.3,1.245,5.054a4.634,4.634,0,0,0,5.311,3.117L186.48,44.8l-1.767.586a.636.636,0,0,0,.2,1.239.627.627,0,0,0,.2-.033l4.746-1.575A.636.636,0,0,0,190.264,44.215ZM181.281,38l-1.467-5.965,5.513-1.831,2.425,5.592a3.418,3.418,0,0,1-6.471,2.2Z" transform="translate(-178.297 -28.627)"/><path class="a" d="M237.518,125.628c-.123-.272-.692-1.3-2.327-.753-2.382.794-2.21-2.445-3.536-1.523l.856,3.9a2.632,2.632,0,0,0,5.007-1.625Z" transform="translate(-228.775 -118.103)"/></g></g></svg>